<svg width="48" height="44" viewBox="0 0 48 44" fill="none" xmlns="http://www.w3.org/2000/svg">
<rect x="0.5" y="0.226562" width="47" height="43" rx="21.5" fill="#FEE2E2"/>
<mask id="mask0_243_2428" style="mask-type:luminance" maskUnits="userSpaceOnUse" x="11" y="10" width="26" height="23">
<path d="M11.2798 10.4795H36.7198V32.9746H11.2798V10.4795Z" fill="white"/>
</mask>
<g mask="url(#mask0_243_2428)">
<mask id="mask1_243_2428" style="mask-type:luminance" maskUnits="userSpaceOnUse" x="11" y="10" width="26" height="23">
<path d="M11.2812 10.4814H36.7212V32.9766H11.2812V10.4814Z" fill="white"/>
</mask>
<g mask="url(#mask1_243_2428)">
<path d="M15.533 29.3708H32.4694C32.6302 29.3708 32.7635 29.3443 32.8693 29.2912C32.9751 29.2381 33.0693 29.1505 33.1518 29.0284C33.2342 28.9063 33.2768 28.7914 33.2795 28.6838C33.2822 28.5763 33.2454 28.4599 33.1692 28.3347L24.7015 14.429C24.6279 14.3082 24.5275 14.2157 24.4003 14.1514C24.2788 14.09 24.1458 14.0593 24.0012 14.0593C23.8567 14.0593 23.7237 14.09 23.6022 14.1514C23.475 14.2157 23.3746 14.3083 23.3009 14.4292L14.8333 28.3347C14.757 28.4599 14.7203 28.5763 14.723 28.6838C14.7257 28.7914 14.7683 28.9063 14.8507 29.0284C14.9332 29.1505 15.0273 29.2381 15.1331 29.2912C15.239 29.3443 15.3721 29.3708 15.533 29.3708ZM15.5329 30.7768C15.0922 30.7767 14.6973 30.6891 14.3482 30.5139C13.9991 30.3386 13.7116 30.0837 13.4856 29.7492C13.2597 29.4147 13.1423 29.07 13.1334 28.7151C13.1244 28.3602 13.2244 28.0112 13.4333 27.6682L21.9012 13.7623C22.1186 13.4054 22.4226 13.1283 22.813 12.9309C23.179 12.7458 23.5751 12.6533 24.0012 12.6533C24.4274 12.6533 24.8235 12.7458 25.1895 12.9309C25.5799 13.1283 25.8839 13.4055 26.1014 13.7625L34.5692 27.6682C34.7781 28.0112 34.8781 28.3602 34.8691 28.7151C34.8602 29.07 34.7428 29.4147 34.5168 29.7492C34.2909 30.0837 34.0034 30.3386 33.6542 30.5139C33.3051 30.6891 32.9102 30.7767 32.4694 30.7768H15.5329Z" fill="#008080"/>
<path d="M24.5103 19.0251L24.7955 24.3853L24.0014 24.4183L23.2073 24.3853L23.492 19.0274C23.4853 19.1573 23.5328 19.2689 23.6344 19.3619C23.736 19.455 23.8599 19.5009 24.0062 19.4997C24.1496 19.4984 24.2709 19.4519 24.37 19.3602C24.469 19.2684 24.5159 19.1592 24.5107 19.0324L24.5103 19.0251ZM22.9217 19.0839C22.9106 18.8153 23.01 18.5838 23.2199 18.3894C23.4298 18.195 23.6867 18.0964 23.9907 18.0938C24.3007 18.0911 24.5633 18.1884 24.7785 18.3857C24.9938 18.5829 25.0943 18.8188 25.0802 19.0934L24.7955 24.4513C24.7932 24.4946 24.7865 24.5374 24.7752 24.5797C24.7639 24.6219 24.7484 24.6628 24.7286 24.7025C24.7087 24.7422 24.6849 24.7799 24.6572 24.8157C24.6295 24.8515 24.5983 24.8847 24.5636 24.9154C24.5289 24.9461 24.4913 24.9737 24.4508 24.9982C24.4104 25.0227 24.3677 25.0437 24.3228 25.0613C24.278 25.0788 24.2317 25.0926 24.1839 25.1025C24.1362 25.1125 24.0878 25.1185 24.0388 25.1205C23.9866 25.1227 23.9348 25.1203 23.8831 25.1135C23.8315 25.1066 23.7811 25.0953 23.732 25.0797C23.6829 25.0641 23.636 25.0443 23.5913 25.0205C23.5466 24.9967 23.5049 24.9693 23.4663 24.9382C23.4277 24.9071 23.3929 24.873 23.3619 24.8359C23.3309 24.7988 23.3043 24.7593 23.282 24.7176C23.2598 24.6758 23.2424 24.6325 23.2298 24.5877C23.2173 24.5429 23.2097 24.4975 23.2073 24.4514L22.9221 19.0912L22.9217 19.0839Z" fill="#008080"/>
<path d="M24.0001 27.9264C23.7257 27.9264 23.4915 27.8406 23.2974 27.669C23.1034 27.4974 23.0063 27.2903 23.0063 27.0477C23.0063 26.805 23.1034 26.5979 23.2974 26.4263C23.4915 26.2547 23.7257 26.1689 24.0001 26.1689C24.2745 26.1689 24.5087 26.2547 24.7028 26.4263C24.8968 26.5979 24.9938 26.805 24.9938 27.0477C24.9938 27.2903 24.8968 27.4974 24.7028 27.669C24.5087 27.8406 24.2745 27.9264 24.0001 27.9264Z" fill="#008080"/>
</g>
</g>
</svg>
