<svg width="106" height="105" viewBox="0 0 106 105" fill="none" xmlns="http://www.w3.org/2000/svg">
<path d="M5.29102 0.5H100.291C102.776 0.5 104.791 2.51472 104.791 5V100C104.791 102.485 102.776 104.5 100.291 104.5H5.29102C2.80573 104.5 0.791016 102.485 0.791016 100V5C0.791016 2.51472 2.80573 0.5 5.29102 0.5Z" fill="#008080" stroke="#008080"/>
<path d="M51.6984 52.679H48.2644V56.198H46.4624V52.679H43.0284V51.047H46.4624V47.528H48.2644V51.047H51.6984V52.679ZM62.4402 47.273H56.7452V50.656C56.9832 50.3387 57.3345 50.0723 57.7992 49.857C58.2752 49.6417 58.7795 49.534 59.3122 49.534C60.2642 49.534 61.0348 49.738 61.6242 50.146C62.2248 50.554 62.6498 51.0697 62.8992 51.693C63.1598 52.3163 63.2902 52.9737 63.2902 53.665C63.2902 54.5037 63.1258 55.2517 62.7972 55.909C62.4798 56.555 61.9982 57.065 61.3522 57.439C60.7175 57.813 59.9355 58 59.0062 58C57.7708 58 56.7792 57.694 56.0312 57.082C55.2832 56.47 54.8355 55.6597 54.6882 54.651H56.5752C56.6998 55.1837 56.9775 55.6087 57.4082 55.926C57.8388 56.232 58.3772 56.385 59.0232 56.385C59.8278 56.385 60.4285 56.1413 60.8252 55.654C61.2332 55.1667 61.4372 54.5207 61.4372 53.716C61.4372 52.9 61.2332 52.2767 60.8252 51.846C60.4172 51.404 59.8165 51.183 59.0232 51.183C58.4678 51.183 57.9975 51.3247 57.6122 51.608C57.2382 51.88 56.9662 52.254 56.7962 52.73H54.9602V45.573H62.4402V47.273Z" fill="white"/>
</svg>
