<svg width="823" height="1091" viewBox="0 0 823 1091" fill="none" xmlns="http://www.w3.org/2000/svg">
<rect width="822" height="1090" transform="translate(0.5625 0.226562)" fill="#008080"/>
<circle cx="390.433" cy="437.381" r="43.8513" fill="#4B4B4B"/>
<rect x="418.138" y="483.458" width="25.2771" height="52.4594" rx="4.92278" transform="rotate(-44.819 418.138 483.458)" fill="#4B4B4B"/>
<rect x="416.406" y="471.336" width="10.3641" height="10.6072" transform="rotate(-45.8249 416.406 471.336)" fill="#4B4B4B"/>
<circle cx="390.432" cy="437.382" r="35.8101" fill="white"/>
<path d="M358.065 437.781C358.656 389.138 432.321 396.74 421.766 445.974L412.037 440.481V426.786H401.684V434.186L383.006 423.325L358.065 437.781Z" fill="#008080" stroke="black" stroke-width="0.144788"/>
<path d="M383.088 426.927L358.582 441.837C360.501 472.691 408.037 482.139 420.437 449.071L383.088 426.927Z" fill="#24A59E" stroke="#24A59E" stroke-width="0.144788"/>
<rect x="376.276" y="444.583" width="5.729" height="5.72893" fill="white"/>
<rect x="376.276" y="452.849" width="5.729" height="5.72893" fill="white"/>
<rect x="384.704" y="444.583" width="5.729" height="5.72893" fill="white"/>
<rect x="384.704" y="452.849" width="5.729" height="5.72893" fill="white"/>
<path d="M298.54 564.366V532.409H305.375V564.366H298.54ZM311.141 564.366V541.73H317.666V547.056H317.799V564.366H311.141ZM326.898 564.366V550.34C326.898 549.098 326.573 548.166 325.922 547.544C325.3 546.923 324.383 546.612 323.17 546.612C322.134 546.612 321.202 546.849 320.373 547.322C319.575 547.796 318.938 548.447 318.465 549.275C318.021 550.104 317.799 551.08 317.799 552.205L317.222 546.745C317.962 545.088 319.042 543.771 320.462 542.795C321.912 541.789 323.688 541.286 325.788 541.286C328.304 541.286 330.227 541.996 331.559 543.416C332.89 544.807 333.556 546.686 333.556 549.053V564.366H326.898ZM348.566 564.81C345.252 564.81 342.619 564.144 340.666 562.813C338.713 561.481 337.648 559.647 337.47 557.309H343.418C343.566 558.315 344.069 559.084 344.927 559.617C345.815 560.12 347.028 560.372 348.566 560.372C349.957 560.372 350.963 560.179 351.585 559.795C352.236 559.38 352.561 558.803 352.561 558.064C352.561 557.501 352.369 557.072 351.984 556.776C351.629 556.451 350.963 556.185 349.987 555.977L346.347 555.223C343.654 554.661 341.672 553.817 340.4 552.693C339.127 551.539 338.491 550.059 338.491 548.254C338.491 546.065 339.334 544.363 341.021 543.15C342.708 541.907 345.06 541.286 348.078 541.286C351.067 541.286 353.449 541.892 355.224 543.106C357 544.289 357.976 545.946 358.154 548.077H352.206C352.088 547.307 351.673 546.73 350.963 546.346C350.253 545.932 349.247 545.724 347.945 545.724C346.761 545.724 345.874 545.902 345.282 546.257C344.72 546.583 344.439 547.056 344.439 547.677C344.439 548.21 344.675 548.639 345.149 548.965C345.622 549.26 346.406 549.527 347.501 549.763L351.585 550.607C353.863 551.08 355.579 551.968 356.733 553.27C357.917 554.542 358.509 556.051 358.509 557.797C358.509 560.016 357.636 561.747 355.89 562.99C354.174 564.203 351.733 564.81 348.566 564.81ZM376.481 564.81C374.32 564.81 372.589 564.307 371.287 563.301C369.986 562.295 369.216 560.919 368.979 559.173L369.335 559.129V573.465H362.677V541.73H369.201V546.745L368.802 546.656C369.127 544.999 370.015 543.697 371.465 542.751C372.915 541.774 374.705 541.286 376.836 541.286C378.877 541.286 380.638 541.774 382.117 542.751C383.627 543.697 384.781 545.044 385.58 546.79C386.408 548.535 386.822 550.592 386.822 552.959C386.822 555.356 386.393 557.442 385.535 559.218C384.677 560.993 383.479 562.369 381.94 563.345C380.401 564.322 378.581 564.81 376.481 564.81ZM374.616 559.484C376.185 559.484 377.457 558.922 378.433 557.797C379.41 556.673 379.898 555.075 379.898 553.004C379.898 550.932 379.395 549.349 378.389 548.254C377.413 547.16 376.125 546.612 374.528 546.612C372.989 546.612 371.717 547.174 370.71 548.299C369.734 549.394 369.246 550.977 369.246 553.048C369.246 555.119 369.734 556.717 370.71 557.842C371.717 558.936 373.018 559.484 374.616 559.484ZM402.521 564.81C400.006 564.81 397.816 564.322 395.952 563.345C394.088 562.339 392.638 560.949 391.602 559.173C390.596 557.398 390.093 555.356 390.093 553.048C390.093 550.71 390.596 548.669 391.602 546.923C392.638 545.147 394.073 543.771 395.908 542.795C397.742 541.789 399.873 541.286 402.299 541.286C404.637 541.286 406.664 541.759 408.38 542.706C410.096 543.653 411.428 544.97 412.375 546.656C413.322 548.343 413.795 550.326 413.795 552.604C413.795 553.078 413.78 553.521 413.751 553.936C413.721 554.32 413.677 554.69 413.617 555.045H393.999V550.651H408.247L407.093 551.45C407.093 549.616 406.649 548.269 405.761 547.411C404.903 546.523 403.72 546.079 402.21 546.079C400.465 546.079 399.103 546.671 398.127 547.855C397.18 549.039 396.707 550.814 396.707 553.181C396.707 555.489 397.18 557.205 398.127 558.33C399.103 559.454 400.553 560.016 402.477 560.016C403.542 560.016 404.459 559.839 405.229 559.484C405.998 559.129 406.575 558.552 406.96 557.753H413.218C412.478 559.942 411.206 561.674 409.401 562.946C407.625 564.189 405.332 564.81 402.521 564.81ZM432.848 564.81C430.54 564.81 428.41 564.411 426.457 563.612C424.504 562.783 422.802 561.629 421.352 560.15C419.932 558.67 418.822 556.924 418.023 554.912C417.224 552.87 416.825 550.651 416.825 548.254C416.825 545.858 417.21 543.668 417.979 541.685C418.778 539.703 419.888 537.987 421.308 536.537C422.758 535.057 424.459 533.933 426.412 533.163C428.365 532.364 430.51 531.965 432.848 531.965C435.482 531.965 437.849 532.483 439.95 533.518C442.08 534.525 443.811 535.96 445.143 537.824C446.504 539.658 447.332 541.819 447.628 544.304H440.971C440.586 542.026 439.654 540.309 438.174 539.155C436.695 537.972 434.934 537.38 432.892 537.38C431.087 537.38 429.49 537.809 428.099 538.667C426.738 539.525 425.672 540.768 424.903 542.396C424.134 543.993 423.749 545.932 423.749 548.21C423.749 550.518 424.134 552.515 424.903 554.202C425.702 555.859 426.797 557.146 428.188 558.064C429.578 558.951 431.176 559.395 432.981 559.395C434.905 559.395 436.606 558.818 438.086 557.664C439.565 556.51 440.527 554.794 440.971 552.515H447.717C447.332 555.001 446.46 557.176 445.098 559.04C443.737 560.875 442.006 562.295 439.905 563.301C437.804 564.307 435.452 564.81 432.848 564.81ZM465.671 564.366C465.493 563.715 465.36 563.02 465.271 562.28C465.212 561.54 465.182 560.682 465.182 559.706H465.005V549.009C465.005 548.092 464.694 547.381 464.073 546.878C463.481 546.346 462.593 546.079 461.41 546.079C460.285 546.079 459.383 546.272 458.702 546.656C458.051 547.041 457.622 547.603 457.415 548.343H451.068C451.364 546.301 452.414 544.615 454.219 543.283C456.024 541.952 458.495 541.286 461.632 541.286C464.886 541.286 467.372 542.011 469.088 543.461C470.805 544.911 471.663 546.997 471.663 549.719V559.706C471.663 560.446 471.707 561.2 471.796 561.969C471.914 562.709 472.092 563.508 472.328 564.366H465.671ZM457.77 564.81C455.521 564.81 453.731 564.248 452.399 563.123C451.068 561.969 450.402 560.446 450.402 558.552C450.402 556.451 451.186 554.764 452.755 553.492C454.352 552.19 456.572 551.347 459.412 550.962L466.026 550.03V553.891L460.522 554.735C459.338 554.912 458.465 555.238 457.903 555.711C457.341 556.185 457.06 556.836 457.06 557.664C457.06 558.404 457.326 558.966 457.859 559.351C458.391 559.735 459.102 559.928 459.989 559.928C461.38 559.928 462.564 559.558 463.54 558.818C464.517 558.049 465.005 557.161 465.005 556.155L465.626 559.706C464.975 561.392 463.984 562.665 462.652 563.523C461.321 564.381 459.693 564.81 457.77 564.81ZM486.204 564.81C482.89 564.81 480.256 564.144 478.303 562.813C476.35 561.481 475.285 559.647 475.108 557.309H481.055C481.203 558.315 481.706 559.084 482.564 559.617C483.452 560.12 484.665 560.372 486.204 560.372C487.595 560.372 488.601 560.179 489.222 559.795C489.873 559.38 490.199 558.803 490.199 558.064C490.199 557.501 490.006 557.072 489.622 556.776C489.267 556.451 488.601 556.185 487.624 555.977L483.985 555.223C481.292 554.661 479.309 553.817 478.037 552.693C476.765 551.539 476.129 550.059 476.129 548.254C476.129 546.065 476.972 544.363 478.658 543.15C480.345 541.907 482.698 541.286 485.716 541.286C488.704 541.286 491.086 541.892 492.862 543.106C494.637 544.289 495.614 545.946 495.791 548.077H489.844C489.725 547.307 489.311 546.73 488.601 546.346C487.891 545.932 486.885 545.724 485.583 545.724C484.399 545.724 483.511 545.902 482.919 546.257C482.357 546.583 482.076 547.056 482.076 547.677C482.076 548.21 482.313 548.639 482.786 548.965C483.26 549.26 484.044 549.527 485.139 549.763L489.222 550.607C491.501 551.08 493.217 551.968 494.371 553.27C495.554 554.542 496.146 556.051 496.146 557.797C496.146 560.016 495.273 561.747 493.528 562.99C491.811 564.203 489.37 564.81 486.204 564.81ZM514.779 564.366C514.601 563.715 514.468 563.02 514.379 562.28C514.32 561.54 514.29 560.682 514.29 559.706H514.113V549.009C514.113 548.092 513.802 547.381 513.181 546.878C512.589 546.346 511.701 546.079 510.518 546.079C509.393 546.079 508.491 546.272 507.81 546.656C507.159 547.041 506.73 547.603 506.523 548.343H500.176C500.472 546.301 501.522 544.615 503.327 543.283C505.132 541.952 507.603 541.286 510.74 541.286C513.995 541.286 516.48 542.011 518.196 543.461C519.913 544.911 520.771 546.997 520.771 549.719V559.706C520.771 560.446 520.815 561.2 520.904 561.969C521.022 562.709 521.2 563.508 521.437 564.366H514.779ZM506.878 564.81C504.629 564.81 502.839 564.248 501.508 563.123C500.176 561.969 499.51 560.446 499.51 558.552C499.51 556.451 500.294 554.764 501.863 553.492C503.46 552.19 505.68 551.347 508.52 550.962L515.134 550.03V553.891L509.63 554.735C508.446 554.912 507.574 555.238 507.011 555.711C506.449 556.185 506.168 556.836 506.168 557.664C506.168 558.404 506.434 558.966 506.967 559.351C507.5 559.735 508.21 559.928 509.097 559.928C510.488 559.928 511.672 559.558 512.648 558.818C513.625 558.049 514.113 557.161 514.113 556.155L514.734 559.706C514.083 561.392 513.092 562.665 511.761 563.523C510.429 564.381 508.802 564.81 506.878 564.81Z" fill="white"/>
<path d="M284.172 596.923V580.944H291.762C292.946 580.944 293.959 581.151 294.802 581.566C295.661 581.98 296.319 582.557 296.778 583.297C297.251 584.036 297.488 584.902 297.488 585.893C297.488 586.884 297.251 587.757 296.778 588.512C296.304 589.266 295.638 589.858 294.78 590.287C293.937 590.702 292.931 590.909 291.762 590.909H286.88V588.29H291.584C292.369 588.29 292.975 588.075 293.404 587.646C293.848 587.202 294.07 586.625 294.07 585.915C294.07 585.205 293.848 584.636 293.404 584.206C292.975 583.777 292.369 583.563 291.584 583.563H287.59V596.923H284.172ZM306.983 596.923V580.944H314.129C315.283 580.944 316.289 581.144 317.148 581.543C318.006 581.928 318.671 582.475 319.145 583.186C319.618 583.896 319.855 584.724 319.855 585.671C319.855 586.603 319.618 587.424 319.145 588.135C318.671 588.83 318.006 589.377 317.148 589.777C316.289 590.161 315.283 590.354 314.129 590.354H309.691V587.846H314.041C314.854 587.846 315.476 587.661 315.905 587.291C316.349 586.907 316.571 586.374 316.571 585.693C316.571 584.998 316.356 584.473 315.927 584.118C315.498 583.748 314.869 583.563 314.041 583.563H310.401V596.923H306.983ZM315.994 596.923L309.58 588.623H313.197L320.61 596.923H315.994ZM337.371 597.145C336.187 597.145 335.092 596.945 334.086 596.546C333.095 596.146 332.229 595.584 331.49 594.859C330.765 594.119 330.195 593.246 329.781 592.24C329.381 591.219 329.182 590.095 329.182 588.867C329.182 587.239 329.529 585.819 330.225 584.606C330.92 583.378 331.882 582.424 333.11 581.743C334.352 581.063 335.765 580.722 337.348 580.722C338.961 580.722 340.381 581.063 341.609 581.743C342.837 582.424 343.799 583.378 344.494 584.606C345.205 585.834 345.56 587.262 345.56 588.889C345.56 590.102 345.353 591.219 344.938 592.24C344.539 593.246 343.969 594.119 343.229 594.859C342.505 595.584 341.639 596.146 340.633 596.546C339.642 596.945 338.554 597.145 337.371 597.145ZM337.348 594.437C338.281 594.437 339.102 594.201 339.812 593.727C340.522 593.254 341.077 592.603 341.476 591.774C341.891 590.931 342.098 589.954 342.098 588.845C342.098 587.75 341.898 586.796 341.498 585.982C341.099 585.168 340.544 584.539 339.834 584.096C339.124 583.652 338.295 583.43 337.348 583.43C336.416 583.43 335.595 583.652 334.885 584.096C334.175 584.539 333.62 585.168 333.221 585.982C332.836 586.781 332.644 587.735 332.644 588.845C332.644 589.969 332.843 590.953 333.243 591.796C333.642 592.625 334.197 593.276 334.907 593.749C335.617 594.208 336.431 594.437 337.348 594.437ZM355.321 596.923V580.944H362.911C364.095 580.944 365.108 581.151 365.951 581.566C366.81 581.98 367.468 582.557 367.927 583.297C368.4 584.036 368.637 584.902 368.637 585.893C368.637 586.884 368.4 587.757 367.927 588.512C367.453 589.266 366.787 589.858 365.929 590.287C365.086 590.702 364.08 590.909 362.911 590.909H358.029V588.29H362.733C363.518 588.29 364.124 588.075 364.553 587.646C364.997 587.202 365.219 586.625 365.219 585.915C365.219 585.205 364.997 584.636 364.553 584.206C364.124 583.777 363.518 583.563 362.733 583.563H358.739V596.923H355.321ZM378.221 596.923V580.944H381.639V596.923H378.221ZM379.819 596.923V594.304H390.116V596.923H379.819ZM379.819 590.043V587.469H389.34V590.043H379.819ZM379.819 583.563V580.944H389.85V583.563H379.819ZM399.862 596.923V580.944H407.008C408.162 580.944 409.168 581.144 410.026 581.543C410.884 581.928 411.55 582.475 412.024 583.186C412.497 583.896 412.734 584.724 412.734 585.671C412.734 586.603 412.497 587.424 412.024 588.135C411.55 588.83 410.884 589.377 410.026 589.777C409.168 590.161 408.162 590.354 407.008 590.354H402.57V587.846H406.919C407.733 587.846 408.354 587.661 408.784 587.291C409.227 586.907 409.449 586.374 409.449 585.693C409.449 584.998 409.235 584.473 408.806 584.118C408.377 583.748 407.748 583.563 406.919 583.563H403.28V596.923H399.862ZM408.872 596.923L402.459 588.623H406.076L413.488 596.923H408.872ZM426.861 596.923V583.563H421.645V580.944H435.494V583.563H430.278V596.923H426.861ZM450.204 596.923V590.465L444.257 580.944H448.363L453.067 589.4H451.137L455.819 580.944H459.57L453.622 590.465V596.923H450.204ZM481.126 596.923V580.944H484.544V596.923H481.126ZM482.724 596.923V594.304H493.022V596.923H482.724ZM482.724 590.043V587.469H492.245V590.043H482.724ZM482.724 583.563V580.944H492.755V583.563H482.724ZM507.982 596.923V590.465L502.034 580.944H506.14L510.844 589.4H508.914L513.596 580.944H517.347L511.399 590.465V596.923H507.982ZM526.688 596.923V580.944H530.106V596.923H526.688ZM528.286 596.923V594.304H538.583V596.923H528.286ZM528.286 590.043V587.469H537.807V590.043H528.286ZM528.286 583.563V580.944H538.317V583.563H528.286Z" fill="white"/>
</svg>
