<svg width="133" height="108" viewBox="0 0 133 108" fill="none" xmlns="http://www.w3.org/2000/svg">
<circle cx="55.4248" cy="22.5478" r="22.4199" fill="#4B4B4B"/>
<rect x="69.5894" y="46.1055" width="12.9234" height="26.8209" rx="2.51687" transform="rotate(-44.819 69.5894 46.1055)" fill="#4B4B4B"/>
<rect x="68.7041" y="39.9082" width="5.29887" height="5.42314" transform="rotate(-45.8249 68.7041 39.9082)" fill="#4B4B4B"/>
<circle cx="55.4244" cy="22.5489" r="18.3087" fill="white"/>
<path d="M38.876 22.7526C39.1779 -2.11701 76.8411 1.77004 71.4444 26.9416L66.4703 24.1334V17.1317H61.177V20.9148L51.6277 15.3621L38.876 22.7526Z" fill="#008080" stroke="black" stroke-width="0.0740256"/>
<path d="M51.6693 17.2031L39.1401 24.8263C40.1213 40.6011 64.425 45.4316 70.7651 28.5247L51.6693 17.2031Z" fill="#24A59E" stroke="#24A59E" stroke-width="0.0740256"/>
<rect x="48.1865" y="26.2314" width="2.92907" height="2.92903" fill="white"/>
<rect x="48.1865" y="30.4561" width="2.92907" height="2.92903" fill="white"/>
<rect x="52.4956" y="26.2314" width="2.92907" height="2.92903" fill="white"/>
<rect x="52.4956" y="30.4561" width="2.92907" height="2.92903" fill="white"/>
<path d="M8.44226 87.4873V71.1484H11.937V87.4873H8.44226ZM14.8849 87.4873V75.9139H18.2208V78.6371H18.2888V87.4873H14.8849ZM22.9409 87.4873V80.3164C22.9409 79.681 22.7745 79.2044 22.4416 78.8867C22.1239 78.569 21.6549 78.4102 21.0347 78.4102C20.5052 78.4102 20.0286 78.5312 19.605 78.7732C19.1966 79.0153 18.8713 79.3481 18.6292 79.7717C18.4023 80.1953 18.2888 80.6946 18.2888 81.2695L17.9938 78.4782C18.372 77.631 18.9242 76.9578 19.6504 76.4586C20.3917 75.9442 21.2994 75.687 22.3736 75.687C23.6595 75.687 24.6428 76.0501 25.3236 76.7763C26.0044 77.4873 26.3448 78.448 26.3448 79.6583V87.4873H22.9409ZM34.0192 87.7142C32.3248 87.7142 30.9784 87.3738 29.9799 86.6931C28.9814 86.0123 28.4368 85.0743 28.346 83.8791H31.3869C31.4625 84.3935 31.7197 84.7869 32.1584 85.0592C32.6123 85.3164 33.2326 85.4449 34.0192 85.4449C34.7303 85.4449 35.2447 85.3466 35.5624 85.1499C35.8952 84.9381 36.0616 84.6431 36.0616 84.2649C36.0616 83.9775 35.9633 83.7581 35.7666 83.6068C35.5851 83.4404 35.2447 83.3043 34.7454 83.1984L32.8846 82.8126C31.5079 82.5251 30.4943 82.094 29.8438 81.5191C29.1932 80.9291 28.868 80.1726 28.868 79.2498C28.868 78.1303 29.2991 77.2604 30.1615 76.6401C31.0238 76.0047 32.2265 75.687 33.7696 75.687C35.2976 75.687 36.5155 75.9971 37.4232 76.6174C38.3309 77.2226 38.8301 78.0698 38.9209 79.159H35.8801C35.8195 78.7657 35.6077 78.4707 35.2447 78.274C34.8816 78.0622 34.3672 77.9563 33.7015 77.9563C33.0964 77.9563 32.6425 78.0471 32.34 78.2286C32.0525 78.395 31.9088 78.6371 31.9088 78.9548C31.9088 79.2271 32.0298 79.4465 32.2719 79.6129C32.514 79.7642 32.9149 79.9003 33.4746 80.0214L35.5624 80.4525C36.7273 80.6946 37.6047 81.1484 38.1947 81.8141C38.7999 82.4646 39.1024 83.2362 39.1024 84.1288C39.1024 85.2634 38.6562 86.1484 37.7636 86.7838C36.8861 87.4041 35.638 87.7142 34.0192 87.7142ZM48.2909 87.7142C47.1865 87.7142 46.3015 87.457 45.6359 86.9427C44.9702 86.4283 44.5769 85.7248 44.4558 84.8322L44.6374 84.8095V92.1393H41.2335V75.9139H44.5693V78.4782L44.3651 78.4329C44.5315 77.5857 44.9853 76.92 45.7266 76.4359C46.4679 75.9366 47.3832 75.687 48.4725 75.687C49.5163 75.687 50.4165 75.9366 51.1729 76.4359C51.9445 76.92 52.5345 77.6083 52.943 78.5009C53.3666 79.3935 53.5784 80.445 53.5784 81.6552C53.5784 82.8807 53.359 83.9472 52.9203 84.8549C52.4815 85.7626 51.8688 86.4661 51.0822 86.9654C50.2955 87.4646 49.3651 87.7142 48.2909 87.7142ZM47.3378 84.9911C48.1396 84.9911 48.7902 84.7036 49.2894 84.1288C49.7887 83.5539 50.0383 82.7369 50.0383 81.6779C50.0383 80.6189 49.7811 79.8096 49.2667 79.2498C48.7675 78.69 48.1094 78.4102 47.2924 78.4102C46.5058 78.4102 45.8552 78.6976 45.3409 79.2725C44.8416 79.8322 44.592 80.6416 44.592 81.7006C44.592 82.7596 44.8416 83.5766 45.3409 84.1515C45.8552 84.7112 46.5209 84.9911 47.3378 84.9911ZM61.6047 87.7142C60.3188 87.7142 59.1993 87.4646 58.2462 86.9654C57.2931 86.451 56.5518 85.74 56.0223 84.8322C55.5079 83.9245 55.2507 82.8807 55.2507 81.7006C55.2507 80.5055 55.5079 79.4616 56.0223 78.569C56.5518 77.6613 57.2855 76.9578 58.2235 76.4586C59.1615 75.9442 60.2507 75.687 61.4913 75.687C62.6864 75.687 63.7227 75.9291 64.6002 76.4132C65.4776 76.8973 66.1584 77.5705 66.6425 78.4329C67.1267 79.2952 67.3687 80.3088 67.3687 81.4737C67.3687 81.7158 67.3612 81.9427 67.346 82.1545C67.3309 82.3512 67.3082 82.5403 67.2779 82.7218H57.2477V80.4752H64.5321L63.9421 80.8837C63.9421 79.9457 63.7152 79.2574 63.2613 78.8186C62.8226 78.3648 62.2174 78.1378 61.4459 78.1378C60.5533 78.1378 59.8574 78.4404 59.3581 79.0456C58.874 79.6507 58.632 80.5584 58.632 81.7687C58.632 82.9487 58.874 83.8262 59.3581 84.4011C59.8574 84.976 60.5987 85.2634 61.582 85.2634C62.1267 85.2634 62.5957 85.1726 62.989 84.9911C63.3823 84.8095 63.6773 84.5145 63.874 84.1061H67.0737C66.6955 85.2256 66.045 86.1106 65.1221 86.7611C64.2144 87.3965 63.0419 87.7142 61.6047 87.7142ZM77.11 87.7142C75.93 87.7142 74.8407 87.51 73.8422 87.1015C72.8437 86.6779 71.9738 86.0879 71.2325 85.3315C70.5064 84.5751 69.939 83.6825 69.5306 82.6537C69.1221 81.6099 68.9179 80.4752 68.9179 79.2498C68.9179 78.0244 69.1145 76.9049 69.5079 75.8912C69.9163 74.8776 70.4837 74.0002 71.2098 73.2589C71.9511 72.5024 72.821 71.9276 73.8195 71.5342C74.818 71.1257 75.9148 70.9215 77.11 70.9215C78.4564 70.9215 79.6667 71.1863 80.7408 71.7158C81.8301 72.2301 82.7151 72.9639 83.3959 73.917C84.0918 74.8549 84.5154 75.9593 84.6667 77.2301H81.2628C81.0661 76.0652 80.5896 75.1878 79.8331 74.5978C79.0767 73.9926 78.1766 73.69 77.1327 73.69C76.2098 73.69 75.3929 73.9094 74.6818 74.3481C73.9859 74.7869 73.4413 75.4223 73.048 76.2543C72.6546 77.0713 72.4579 78.0622 72.4579 79.2271C72.4579 80.4071 72.6546 81.4283 73.048 82.2906C73.4564 83.1378 74.0162 83.7959 74.7272 84.2649C75.4383 84.7188 76.2552 84.9457 77.1781 84.9457C78.1614 84.9457 79.0313 84.6507 79.7877 84.0607C80.5442 83.4707 81.0359 82.5932 81.2628 81.4283H84.7121C84.5154 82.6991 84.0691 83.8111 83.3732 84.7642C82.6773 85.7021 81.7923 86.4283 80.7182 86.9427C79.644 87.457 78.4413 87.7142 77.11 87.7142ZM93.8912 87.4873C93.8004 87.1545 93.7323 86.799 93.6869 86.4207C93.6567 86.0425 93.6416 85.6038 93.6416 85.1046H93.5508V79.6356C93.5508 79.1666 93.3919 78.8035 93.0742 78.5463C92.7717 78.274 92.3178 78.1378 91.7127 78.1378C91.1378 78.1378 90.6764 78.2362 90.3284 78.4329C89.9956 78.6295 89.7762 78.917 89.6703 79.2952H86.4252C86.5765 78.2513 87.1136 77.389 88.0364 76.7082C88.9593 76.0274 90.2225 75.687 91.8261 75.687C93.4903 75.687 94.7611 76.0577 95.6385 76.799C96.516 77.5403 96.9547 78.6068 96.9547 79.9987V85.1046C96.9547 85.4828 96.9774 85.8685 97.0228 86.2619C97.0833 86.6401 97.1741 87.0486 97.2951 87.4873H93.8912ZM89.8519 87.7142C88.7021 87.7142 87.7868 87.4268 87.106 86.8519C86.4252 86.2619 86.0848 85.4828 86.0848 84.5145C86.0848 83.4404 86.4857 82.5781 87.2876 81.9276C88.1045 81.2619 89.2391 80.8307 90.6915 80.6341L94.0727 80.1575V82.1318L91.2588 82.563C90.6537 82.6537 90.2074 82.8201 89.9199 83.0622C89.6325 83.3043 89.4888 83.6371 89.4888 84.0607C89.4888 84.4389 89.6249 84.7263 89.8972 84.923C90.1696 85.1197 90.5326 85.218 90.9865 85.218C91.6975 85.218 92.3027 85.0289 92.8019 84.6507C93.3012 84.2574 93.5508 83.8035 93.5508 83.2891L93.8685 85.1046C93.5357 85.9669 93.0289 86.6174 92.3481 87.0561C91.6673 87.4949 90.8352 87.7142 89.8519 87.7142ZM104.389 87.7142C102.695 87.7142 101.348 87.3738 100.35 86.6931C99.3515 86.0123 98.8068 85.0743 98.7161 83.8791H101.757C101.833 84.3935 102.09 84.7869 102.528 85.0592C102.982 85.3164 103.603 85.4449 104.389 85.4449C105.1 85.4449 105.615 85.3466 105.932 85.1499C106.265 84.9381 106.432 84.6431 106.432 84.2649C106.432 83.9775 106.333 83.7581 106.137 83.6068C105.955 83.4404 105.615 83.3043 105.115 83.1984L103.255 82.8126C101.878 82.5251 100.864 82.094 100.214 81.5191C99.5633 80.9291 99.238 80.1726 99.238 79.2498C99.238 78.1303 99.6692 77.2604 100.532 76.6401C101.394 76.0047 102.597 75.687 104.14 75.687C105.668 75.687 106.886 75.9971 107.793 76.6174C108.701 77.2226 109.2 78.0698 109.291 79.159H106.25C106.19 78.7657 105.978 78.4707 105.615 78.274C105.252 78.0622 104.737 77.9563 104.072 77.9563C103.466 77.9563 103.013 78.0471 102.71 78.2286C102.423 78.395 102.279 78.6371 102.279 78.9548C102.279 79.2271 102.4 79.4465 102.642 79.6129C102.884 79.7642 103.285 79.9003 103.845 80.0214L105.932 80.4525C107.097 80.6946 107.975 81.1484 108.565 81.8141C109.17 82.4646 109.472 83.2362 109.472 84.1288C109.472 85.2634 109.026 86.1484 108.134 86.7838C107.256 87.4041 106.008 87.7142 104.389 87.7142ZM118.999 87.4873C118.908 87.1545 118.84 86.799 118.794 86.4207C118.764 86.0425 118.749 85.6038 118.749 85.1046H118.658V79.6356C118.658 79.1666 118.499 78.8035 118.182 78.5463C117.879 78.274 117.425 78.1378 116.82 78.1378C116.245 78.1378 115.784 78.2362 115.436 78.4329C115.103 78.6295 114.884 78.917 114.778 79.2952H111.533C111.684 78.2513 112.221 77.389 113.144 76.7082C114.067 76.0274 115.33 75.687 116.934 75.687C118.598 75.687 119.869 76.0577 120.746 76.799C121.624 77.5403 122.062 78.6068 122.062 79.9987V85.1046C122.062 85.4828 122.085 85.8685 122.13 86.2619C122.191 86.6401 122.282 87.0486 122.403 87.4873H118.999ZM114.959 87.7142C113.81 87.7142 112.894 87.4268 112.214 86.8519C111.533 86.2619 111.192 85.4828 111.192 84.5145C111.192 83.4404 111.593 82.5781 112.395 81.9276C113.212 81.2619 114.347 80.8307 115.799 80.6341L119.18 80.1575V82.1318L116.366 82.563C115.761 82.6537 115.315 82.8201 115.027 83.0622C114.74 83.3043 114.596 83.6371 114.596 84.0607C114.596 84.4389 114.732 84.7263 115.005 84.923C115.277 85.1197 115.64 85.218 116.094 85.218C116.805 85.218 117.41 85.0289 117.909 84.6507C118.409 84.2574 118.658 83.8035 118.658 83.2891L118.976 85.1046C118.643 85.9669 118.136 86.6174 117.456 87.0561C116.775 87.4949 115.943 87.7142 114.959 87.7142Z" fill="#008080"/>
<path d="M1.09662 104.381V96.2114H4.9771C5.58224 96.2114 6.1004 96.3173 6.53156 96.5291C6.97029 96.7409 7.3069 97.0359 7.54139 97.4141C7.78345 97.7924 7.90448 98.2349 7.90448 98.7417C7.90448 99.2485 7.78345 99.6948 7.54139 100.081C7.29934 100.466 6.95894 100.769 6.52021 100.988C6.08905 101.2 5.57468 101.306 4.9771 101.306H2.48088V99.9671H4.88633C5.28723 99.9671 5.59737 99.8574 5.81673 99.6381C6.04366 99.4111 6.15713 99.1161 6.15713 98.753C6.15713 98.3899 6.04366 98.0987 5.81673 97.8794C5.59737 97.66 5.28723 97.5503 4.88633 97.5503H2.84397V104.381H1.09662ZM12.7593 104.381V96.2114H16.4129C17.0029 96.2114 17.5173 96.3135 17.956 96.5178C18.3947 96.7145 18.7351 96.9943 18.9772 97.3574C19.2192 97.7205 19.3403 98.1441 19.3403 98.6282C19.3403 99.1048 19.2192 99.5246 18.9772 99.8877C18.7351 100.243 18.3947 100.523 17.956 100.727C17.5173 100.924 17.0029 101.022 16.4129 101.022H14.1436V99.7402H16.3675C16.7835 99.7402 17.1012 99.6456 17.3206 99.4565C17.5475 99.2598 17.661 98.9875 17.661 98.6396C17.661 98.284 17.5513 98.0155 17.3319 97.834C17.1126 97.6449 16.7911 97.5503 16.3675 97.5503H14.5067V104.381H12.7593ZM17.366 104.381L14.0869 100.137H15.9363L19.726 104.381H17.366ZM28.2954 104.494C27.6903 104.494 27.1305 104.392 26.6162 104.188C26.1094 103.984 25.6668 103.696 25.2886 103.326C24.918 102.947 24.6268 102.501 24.415 101.987C24.2107 101.465 24.1086 100.89 24.1086 100.262C24.1086 99.43 24.2864 98.7039 24.6419 98.0836C24.9974 97.4558 25.4891 96.9679 26.1169 96.6199C26.7523 96.2719 27.4747 96.098 28.2841 96.098C29.1086 96.098 29.8348 96.2719 30.4626 96.6199C31.0904 96.9679 31.5821 97.4558 31.9376 98.0836C32.3007 98.7114 32.4823 99.4414 32.4823 100.273C32.4823 100.894 32.3764 101.465 32.1646 101.987C31.9603 102.501 31.6691 102.947 31.2909 103.326C30.9202 103.696 30.4777 103.984 29.9634 104.188C29.4566 104.392 28.9006 104.494 28.2954 104.494ZM28.2841 103.11C28.7606 103.11 29.1805 102.989 29.5435 102.747C29.9066 102.505 30.1903 102.172 30.3945 101.748C30.6063 101.317 30.7122 100.818 30.7122 100.251C30.7122 99.691 30.6101 99.2031 30.4059 98.7871C30.2016 98.371 29.918 98.0495 29.5549 97.8226C29.1918 97.5957 28.7682 97.4822 28.2841 97.4822C27.8075 97.4822 27.3877 97.5957 27.0246 97.8226C26.6615 98.0495 26.3779 98.371 26.1737 98.7871C25.977 99.1955 25.8786 99.6834 25.8786 100.251C25.8786 100.826 25.9808 101.329 26.185 101.76C26.3892 102.183 26.6729 102.516 27.036 102.758C27.3991 102.993 27.8151 103.11 28.2841 103.11ZM37.473 104.381V96.2114H41.3535C41.9586 96.2114 42.4768 96.3173 42.908 96.5291C43.3467 96.7409 43.6833 97.0359 43.9178 97.4141C44.1598 97.7924 44.2809 98.2349 44.2809 98.7417C44.2809 99.2485 44.1598 99.6948 43.9178 100.081C43.6757 100.466 43.3353 100.769 42.8966 100.988C42.4654 101.2 41.9511 101.306 41.3535 101.306H38.8573V99.9671H41.2627C41.6636 99.9671 41.9738 99.8574 42.1931 99.6381C42.4201 99.4111 42.5335 99.1161 42.5335 98.753C42.5335 98.3899 42.4201 98.0987 42.1931 97.8794C41.9738 97.66 41.6636 97.5503 41.2627 97.5503H39.2204V104.381H37.473ZM49.1811 104.381V96.2114H50.9285V104.381H49.1811ZM49.9981 104.381V103.042H55.2628V104.381H49.9981ZM49.9981 100.863V99.5473H54.8657V100.863H49.9981ZM49.9981 97.5503V96.2114H55.1266V97.5503H49.9981ZM60.2455 104.381V96.2114H63.899C64.4891 96.2114 65.0034 96.3135 65.4422 96.5178C65.8809 96.7145 66.2213 96.9943 66.4633 97.3574C66.7054 97.7205 66.8264 98.1441 66.8264 98.6282C66.8264 99.1048 66.7054 99.5246 66.4633 99.8877C66.2213 100.243 65.8809 100.523 65.4422 100.727C65.0034 100.924 64.4891 101.022 63.899 101.022H61.6297V99.7402H63.8537C64.2697 99.7402 64.5874 99.6456 64.8068 99.4565C65.0337 99.2598 65.1471 98.9875 65.1471 98.6396C65.1471 98.284 65.0375 98.0155 64.8181 97.834C64.5987 97.6449 64.2773 97.5503 63.8537 97.5503H61.9928V104.381H60.2455ZM64.8521 104.381L61.573 100.137H63.4225L67.2122 104.381H64.8521ZM74.049 104.381V97.5503H71.3826V96.2114H78.4628V97.5503H75.7964V104.381H74.049ZM85.9841 104.381V101.079L82.9432 96.2114H85.0423L87.4478 100.534H86.4606L88.8547 96.2114H90.7723L87.7314 101.079V104.381H85.9841ZM101.794 104.381V96.2114H103.541V104.381H101.794ZM102.61 104.381V103.042H107.875V104.381H102.61ZM102.61 100.863V99.5473H107.478V100.863H102.61ZM102.61 97.5503V96.2114H107.739V97.5503H102.61ZM115.524 104.381V101.079L112.483 96.2114H114.582L116.987 100.534H116L118.394 96.2114H120.312L117.271 101.079V104.381H115.524ZM125.088 104.381V96.2114H126.835V104.381H125.088ZM125.905 104.381V103.042H131.17V104.381H125.905ZM125.905 100.863V99.5473H130.772V100.863H125.905ZM125.905 97.5503V96.2114H131.033V97.5503H125.905Z" fill="#008080"/>
</svg>
