<svg width="55" height="55" viewBox="0 0 55 55" fill="none" xmlns="http://www.w3.org/2000/svg">
<path d="M27.0254 1C41.3989 1 53.0516 12.6519 53.0518 27.0254C53.0518 41.399 41.399 53.0518 27.0254 53.0518C12.6519 53.0516 1 41.3989 1 27.0254C1.00013 12.652 12.652 1.00013 27.0254 1Z" fill="#008080" stroke="white" stroke-width="2"/>
<path d="M36.034 24.3391H29.7122V18.0173C29.7122 17.179 29.3792 16.375 28.7864 15.7822C28.1936 15.1895 27.3896 14.8564 26.5513 14.8564C25.713 14.8564 24.909 15.1895 24.3162 15.7822C23.7234 16.375 23.3904 17.179 23.3904 18.0173L23.5026 24.3391H17.0686C16.2303 24.3391 15.4263 24.6721 14.8335 25.2649C14.2407 25.8577 13.9077 26.6617 13.9077 27.5C13.9077 28.3383 14.2407 29.1423 14.8335 29.7351C15.4263 30.3279 16.2303 30.6609 17.0686 30.6609L23.5026 30.5487L23.3904 36.9827C23.3904 37.821 23.7234 38.625 24.3162 39.2178C24.909 39.8106 25.713 40.1436 26.5513 40.1436C27.3896 40.1436 28.1936 39.8106 28.7864 39.2178C29.3792 38.625 29.7122 37.821 29.7122 36.9827V30.5487L36.034 30.6609C36.8723 30.6609 37.6763 30.3279 38.2691 29.7351C38.8618 29.1423 39.1949 28.3383 39.1949 27.5C39.1949 26.6617 38.8618 25.8577 38.2691 25.2649C37.6763 24.6721 36.8723 24.3391 36.034 24.3391Z" fill="white"/>
</svg>
