<svg width="26" height="24" viewBox="0 0 26 24" fill="none" xmlns="http://www.w3.org/2000/svg">
<g clip-path="url(#clip0_258_664)">
<path fill-rule="evenodd" clip-rule="evenodd" d="M24.7646 23.2396V0.760388H12.0208V8.51801L11.2625 7.91551V0.556787C11.2742 0.414696 11.336 0.281399 11.437 0.180748C11.4935 0.123483 11.5607 0.0780139 11.6349 0.0469842C11.7091 0.0159544 11.7887 -1.65378e-05 11.8692 1.28503e-08H24.9162C24.9962 -1.38707e-05 25.0753 0.0157634 25.1491 0.0464253C25.2229 0.0770873 25.2899 0.12203 25.3463 0.17867L25.3733 0.207756C25.4725 0.318526 25.5273 0.462084 25.527 0.610803V6.47161V23.2396H21.6067V18.0956C21.6067 18.0035 21.5701 17.9153 21.5051 17.8502C21.44 17.7852 21.3518 17.7486 21.2597 17.7486H18.7895V24H25.5291V23.2396H24.7646ZM1.60807 23.9979V16.5665C1.32672 16.6854 1.01219 16.7001 0.720952 16.608C0.528884 16.5437 0.359398 16.4254 0.232725 16.2673C0.104571 16.1087 0.023901 15.9172 3.81256e-05 15.7147C-0.0168178 15.5279 0.00411244 15.3397 0.0615803 15.1613C0.119048 14.9828 0.211876 14.8177 0.334526 14.6759C0.348861 14.6585 0.364865 14.6425 0.38231 14.6281L8.35599 8.39543C8.40638 8.34806 8.47219 8.3205 8.54129 8.31783C8.6104 8.31516 8.67814 8.33755 8.73203 8.38089L16.7244 14.5928L16.7597 14.624C16.9189 14.7785 17.0364 14.9708 17.1014 15.1829C17.1664 15.395 17.1768 15.6201 17.1316 15.8373C17.0888 16.0177 17.0018 16.1847 16.8785 16.3232C16.7553 16.4617 16.5995 16.5674 16.4252 16.6309C16.2708 16.6843 16.1073 16.7063 15.9442 16.6956C15.7812 16.6849 15.6219 16.6417 15.4758 16.5686V23.9626H14.7029V16.2424C14.7029 16.1011 9.22026 11.7673 8.61569 11.2957C7.97372 11.7839 2.383 16.0741 2.383 16.2632V24L1.60807 23.9979ZM8.5866 16.4543C9.3943 16.4587 10.1676 16.7817 10.7383 17.3533C11.3091 17.9248 11.6311 18.6985 11.6344 19.5062V22.7576H5.53466V19.5062C5.53686 18.6975 5.8591 17.9225 6.43098 17.3506C7.00285 16.7787 7.77785 16.4565 8.5866 16.4543ZM8.85045 16.9986V19.5145H11.1067C11.1072 18.8907 10.8771 18.2887 10.4606 17.8243C10.0441 17.3598 9.47066 17.0658 8.85045 16.9986ZM8.85045 20.0443V22.2299H11.1067V20.0443H8.85045ZM8.32067 22.2299V20.0443H6.06652V22.2299H8.32067ZM8.32067 19.5166V16.9986C7.70244 17.0665 7.13087 17.3597 6.71509 17.8223C6.2993 18.2848 6.06842 18.8843 6.06652 19.5062L8.32067 19.5166ZM4.97372 23.3352H12.1974V23.865H4.97372V23.3352ZM13.8532 2.67382H15.8996C15.9149 2.67434 15.9294 2.68064 15.9402 2.69143C15.951 2.70223 15.9573 2.71673 15.9578 2.73199V5.10042C15.9573 5.11548 15.9509 5.12975 15.94 5.14021C15.9292 5.15068 15.9147 5.15652 15.8996 5.15651H13.8532C13.8457 5.15679 13.8382 5.15555 13.8311 5.15285C13.8241 5.15016 13.8176 5.14607 13.8122 5.14083C13.8068 5.1356 13.8025 5.12932 13.7995 5.12237C13.7966 5.11543 13.795 5.10796 13.7951 5.10042V2.73199C13.7951 2.71657 13.8012 2.70177 13.8121 2.69086C13.823 2.67995 13.8378 2.67382 13.8532 2.67382ZM20.8878 2.67382H22.9342C22.9495 2.67434 22.964 2.68064 22.9748 2.69143C22.9856 2.70223 22.9919 2.71673 22.9924 2.73199V5.10042C22.9919 5.11548 22.9855 5.12975 22.9747 5.14021C22.9638 5.15068 22.9493 5.15652 22.9342 5.15651H20.8878C20.8728 5.15652 20.8583 5.15068 20.8474 5.14021C20.8366 5.12975 20.8302 5.11548 20.8297 5.10042V2.73199C20.8302 2.71673 20.8365 2.70223 20.8473 2.69143C20.8581 2.68064 20.8726 2.67434 20.8878 2.67382ZM17.3705 2.67382H19.4169C19.4322 2.67434 19.4467 2.68064 19.4575 2.69143C19.4683 2.70223 19.4746 2.71673 19.4751 2.73199V5.10042C19.4746 5.11548 19.4682 5.12975 19.4573 5.14021C19.4465 5.15068 19.432 5.15652 19.4169 5.15651H17.3705C17.363 5.15679 17.3555 5.15555 17.3484 5.15285C17.3414 5.15016 17.335 5.14607 17.3295 5.14083C17.3241 5.1356 17.3198 5.12932 17.3168 5.12237C17.3139 5.11543 17.3124 5.10796 17.3124 5.10042V2.73199C17.3124 2.71657 17.3185 2.70177 17.3294 2.69086C17.3403 2.67995 17.3551 2.67382 17.3705 2.67382ZM13.8532 7.42936H15.8996C15.9147 7.42935 15.9292 7.4352 15.94 7.44566C15.9509 7.45612 15.9573 7.47039 15.9578 7.48546V9.85388C15.9573 9.86914 15.951 9.88364 15.9402 9.89444C15.9294 9.90524 15.9149 9.91153 15.8996 9.91205H13.8532C13.8378 9.91205 13.823 9.90592 13.8121 9.89501C13.8012 9.8841 13.7951 9.86931 13.7951 9.85388V7.47922C13.795 7.47168 13.7966 7.46421 13.7995 7.45727C13.8025 7.45032 13.8068 7.44404 13.8122 7.43881C13.8176 7.43357 13.8241 7.42948 13.8311 7.42679C13.8382 7.42409 13.8457 7.42285 13.8532 7.42313V7.42936ZM20.8878 7.42936H22.9342C22.9493 7.42935 22.9638 7.4352 22.9747 7.44566C22.9855 7.45612 22.9919 7.47039 22.9924 7.48546V9.85388C22.9919 9.86914 22.9856 9.88364 22.9748 9.89444C22.964 9.90524 22.9495 9.91153 22.9342 9.91205H20.8878C20.8726 9.91153 20.8581 9.90524 20.8473 9.89444C20.8365 9.88364 20.8302 9.86914 20.8297 9.85388V7.47922C20.8302 7.46416 20.8366 7.44989 20.8474 7.43943C20.8583 7.42896 20.8728 7.42312 20.8878 7.42313V7.42936ZM17.3705 7.42936H19.4169C19.432 7.42935 19.4465 7.4352 19.4573 7.44566C19.4682 7.45612 19.4746 7.47039 19.4751 7.48546V9.85388C19.4746 9.86914 19.4683 9.88364 19.4575 9.89444C19.4467 9.90524 19.4322 9.91153 19.4169 9.91205H17.3705C17.3551 9.91205 17.3403 9.90592 17.3294 9.89501C17.3185 9.8841 17.3124 9.86931 17.3124 9.85388V7.47922C17.3124 7.47168 17.3139 7.46421 17.3168 7.45727C17.3198 7.45032 17.3241 7.44404 17.3295 7.43881C17.335 7.43357 17.3414 7.42948 17.3484 7.42679C17.3555 7.42409 17.363 7.42285 17.3705 7.42313V7.42936ZM20.8878 12.1828H22.9342C22.9495 12.1833 22.964 12.1896 22.9748 12.2004C22.9856 12.2112 22.9919 12.2257 22.9924 12.241V14.6073C22.9919 14.6226 22.9856 14.6371 22.9748 14.6479C22.964 14.6587 22.9495 14.665 22.9342 14.6655H20.8878C20.8726 14.665 20.8581 14.6587 20.8473 14.6479C20.8365 14.6371 20.8302 14.6226 20.8297 14.6073V12.241C20.8302 12.2257 20.8365 12.2112 20.8473 12.2004C20.8581 12.1896 20.8726 12.1833 20.8878 12.1828ZM17.3705 12.1828H19.4169C19.4322 12.1833 19.4467 12.1896 19.4575 12.2004C19.4683 12.2112 19.4746 12.2257 19.4751 12.241V14.6073C19.4746 14.6226 19.4683 14.6371 19.4575 14.6479C19.4467 14.6587 19.4322 14.665 19.4169 14.6655H18.7937V13.8823L17.3165 12.7105V12.241C17.3165 12.2256 17.3226 12.2108 17.3336 12.1999C17.3445 12.189 17.3593 12.1828 17.3747 12.1828H17.3705Z" fill="#999D9B"/>
</g>
<defs>
<clipPath id="clip0_258_664">
<rect width="25.5291" height="24" fill="white"/>
</clipPath>
</defs>
</svg>
