<svg width="24" height="24" viewBox="0 0 24 24" fill="none" xmlns="http://www.w3.org/2000/svg">
<path d="M22.2359 14.2901C22.1524 14.3752 22.0781 14.4529 22.012 14.5278C21.9455 14.6026 21.887 14.6651 21.8374 14.7153C21.7708 14.7829 21.7129 14.8321 21.6636 14.8649L19.5477 12.768C19.647 12.684 19.7587 12.5845 19.8832 12.4687C20.0076 12.3509 20.1112 12.2597 20.1948 12.1932C20.3935 12.0097 20.6092 11.9319 20.8418 11.9554C21.0736 11.981 21.2646 12.0353 21.4142 12.1183C21.5802 12.2023 21.7585 12.3478 21.9496 12.555C22.1401 12.764 22.2858 12.9834 22.3847 13.2182C22.4347 13.3504 22.4681 13.5174 22.485 13.7173C22.5012 13.9161 22.4178 14.1086 22.2359 14.2901ZM18.4019 18.1111L16.6845 19.8335C16.4519 20.0661 16.2572 20.267 16.0994 20.4329C15.9416 20.5979 15.8545 20.69 15.8376 20.7065C15.7551 20.7731 15.664 20.8438 15.564 20.9197C15.4651 20.9933 15.3647 21.057 15.2653 21.1061C15.1659 21.1563 15.0126 21.2178 14.8053 21.2946C14.5977 21.3693 14.3861 21.4391 14.1704 21.5057C13.9547 21.5724 13.7471 21.6308 13.5479 21.6799C13.3491 21.7312 13.1993 21.7639 13.1002 21.7803C12.9002 21.8143 12.7675 21.7887 12.7015 21.7057C12.6349 21.6224 12.6184 21.4811 12.6518 21.2814C12.6686 21.181 12.7015 21.0313 12.7512 20.8325C12.8014 20.6318 12.8593 20.4277 12.926 20.2208C12.992 20.0117 13.054 19.8161 13.1128 19.6326C13.1703 19.4503 13.2164 19.3252 13.2486 19.2596C13.3491 19.0424 13.4817 18.8519 13.6473 18.6849L13.9716 18.36L14.5936 17.736C14.8427 17.4859 15.1162 17.2073 15.4149 16.8998C15.7136 16.5924 16.0122 16.2882 16.3105 15.9889C17.0247 15.2728 17.8297 14.4734 18.7258 13.5922L20.8161 15.6887L18.4019 18.1111ZM16.3243 5.13719C16.3243 4.79595 16.0477 4.51934 15.707 4.51934H14.4717V3.28459H16.9423C17.283 3.28459 17.5597 3.56019 17.5597 3.90241V12.3017L16.3243 13.6609V5.13719ZM13.2363 5.75501H12.6184C12.2777 5.75501 12.0011 5.47841 12.0011 5.13719V2.66665C12.0011 2.32546 12.2777 2.04883 12.6184 2.04883H13.2363C13.5771 2.04883 13.8538 2.32546 13.8538 2.66665V5.13719C13.8538 5.47838 13.5771 5.75501 13.2363 5.75501ZM7.67746 3.28459H11.3832V4.51934H7.67746V3.28459ZM6.44213 5.75501H5.82476C5.48357 5.75501 5.20682 5.47841 5.20682 5.13719V2.66665C5.20682 2.32546 5.48357 2.04883 5.82476 2.04883H6.44213C6.78289 2.04883 7.06012 2.32546 7.06012 2.66665V5.13719C7.0601 5.47838 6.78289 5.75501 6.44213 5.75501ZM2.73628 5.13719V18.7259C2.73628 19.0671 3.01303 19.3437 3.35422 19.3437H11.1584L10.0353 20.5785H2.11837C1.7777 20.5785 1.50098 20.3029 1.50098 19.9617V3.90241C1.50098 3.56016 1.77772 3.28459 2.11837 3.28459H4.58946V4.51934H3.35425C3.01291 4.51934 2.73628 4.79595 2.73628 5.13719ZM14.4717 15.329C14.4717 15.4992 14.3333 15.6375 14.1627 15.6375H4.89796C4.72729 15.6375 4.58943 15.4992 4.58943 15.329V14.7113C4.58943 14.54 4.72729 14.4028 4.89796 14.4028H14.1627C14.3333 14.4028 14.4717 14.5401 14.4717 14.7113V15.329ZM14.1628 10.6961H4.89796C4.72729 10.6961 4.58943 10.5577 4.58943 10.3875V9.76972C4.58943 9.59862 4.72729 9.46131 4.89796 9.46131H14.1627C14.3333 9.46131 14.4717 9.59862 14.4717 9.76972V10.3875C14.4717 10.5577 14.3333 10.6961 14.1628 10.6961Z" fill="#999D9B"/>
</svg>
