<svg width="19" height="21" viewBox="0 0 19 21" fill="none" xmlns="http://www.w3.org/2000/svg">
<path d="M9.84762 20.9443V18.9697H16.7587V17.9824H12.8095V10.0839H16.7587V9.09665C16.7587 7.18787 16.0841 5.55882 14.7348 4.20951C13.3855 2.8602 11.7564 2.18554 9.84762 2.18554C7.93884 2.18554 6.3098 2.8602 4.96048 4.20951C3.61117 5.55882 2.93652 7.18787 2.93652 9.09665V10.0839H6.88572V17.9824H2.93652C2.3935 17.9824 1.92881 17.7892 1.54245 17.4028C1.15608 17.0164 0.962572 16.5514 0.961914 16.0078V9.09665C0.961914 7.87898 1.19656 6.73107 1.66586 5.65294C2.13516 4.57481 2.77262 3.63292 3.57826 2.82729C4.3839 2.02165 5.32611 1.38418 6.40491 0.914883C7.4837 0.445586 8.63127 0.210938 9.84762 0.210938C11.064 0.210938 12.2119 0.445586 13.2913 0.914883C14.3708 1.38418 15.3127 2.02165 16.117 2.82729C16.9213 3.63292 17.5591 4.57514 18.0304 5.65393C18.5016 6.73272 18.736 7.88029 18.7333 9.09665V18.9697C18.7333 19.5127 18.5402 19.9777 18.1538 20.3647C17.7674 20.7517 17.3024 20.9449 16.7587 20.9443H9.84762ZM2.93652 16.0078H4.91112V12.0586H2.93652V16.0078ZM14.7841 16.0078H16.7587V12.0586H14.7841V16.0078Z" fill="#999D9B"/>
</svg>
