<svg width="24" height="24" viewBox="0 0 24 24" fill="none" xmlns="http://www.w3.org/2000/svg">
<path d="M19.335 21.4622H4.67569C3.21024 21.4622 2.07923 20.3565 2.27131 18.9037L2.38246 18.0565C2.58429 16.8864 3.65485 16.1503 4.81707 15.8978L11.9298 14.6468H12.0702L19.1829 15.8978C20.3646 16.1708 21.4157 16.866 21.6175 18.0565L21.7287 18.9145C21.9207 20.3672 20.7897 21.4719 19.3243 21.4719L19.335 21.4622ZM16.875 6.84674C16.875 8.13969 16.3614 9.37968 15.4472 10.2939C14.5329 11.2082 13.2929 11.7218 12 11.7218C10.707 11.7218 9.46704 11.2082 8.55279 10.2939C7.63854 9.37968 7.12492 8.13969 7.12492 6.84674C7.12492 5.55379 7.63854 4.3138 8.55279 3.39955C9.46704 2.4853 10.707 1.97168 12 1.97168C13.2929 1.97168 14.5329 2.4853 15.4472 3.39955C16.3614 4.3138 16.875 5.55379 16.875 6.84674Z" stroke="#999D9B" stroke-width="1.5" stroke-linecap="round" stroke-linejoin="round"/>
</svg>
